<?xml version="1.0" encoding="UTF-8"?>
<svg id="Calque_1" xmlns="http://www.w3.org/2000/svg" viewBox="0 0 188.14 231.32">
  <defs>
    <style>
      .cls-1, .cls-2 {
        fill: #1d1d1b;
      }

      .cls-3 {
        letter-spacing: -.05em;
      }

      .cls-2 {
        font-family: MyriadPro-Regular, 'Myriad Pro';
        font-size: 33.45px;
      }
    </style>
  </defs>
  <path class="cls-1" d="M42.19,172.39c3.33,9.07,8.33,16.55,14.42,22.44h-12.94c-3.3-4.18-6.27-8.88-8.83-14.11,2.38-2.7,4.87-5.52,7.35-8.33Z"/>
  <path class="cls-1" d="M164.46,171.61c-2.55,8.86-6.6,16.63-11.74,23.22h-13.29c6.42-6.21,11.61-14.18,14.9-23.91,3.16.61,6.83.85,10.13.69Z"/>
  <g>
    <path class="cls-1" d="M178.4,147.89c-3.2-4.74-7.33-8.35-12.67-10.48-7.04-3.03-14.6.64-20.19,5.05.27.48.5,1.04.87,1.48,2.27,2.7,4.5,5.45,6.89,8.04,2.7,2.92,5.8,5.28,9.81,6.18.3.06.56.29.87.47-1.33,1.36-3.74,1.88-5.29.8-1.86-1.3-3.96-2.37-5.5-3.99-3.83-4.03-7.49-8.24-11.05-12.51-21.09-26.28-52.03-32.72-79.22-11.11-4.73,3.68-8.75,8.08-13.01,12.25-2.2,2.17-15.01,17.67-19.28,23.12,0,0-2.41,3.42-3.78,4.68-.05.04-.27.24-.53.55-.3.37-.5.72-.63.98,0,0-2.58,6.97-2.6,7.06-.68,2.12-1.3,4.26-1.89,6.41-.59,2.15-1.1,4.33-1.64,6.49,0,.05.08.13.15.25.13-.06.3-.09.38-.19,3.62-4.44,6.91-9.12,10.45-13.62,4.18-5.24,8.47-10.4,12.66-15.63,6.15-7.69,10.55-12.42,13.52-15.42,1.67-1.68,11-10.42,15.6-13.37,1.65-1.06,4.37-2.79,7.89-4.31,3.2-1.38,10.88-4.57,21.06-3.67,1.75.16,9.31.94,17.38,5.58,1.9,1.09,3.23,2.06,4.26,2.8,10.05,7.34,17.37,17.54,26.08,26.26,3.74,3.72,8.59,4.97,13.85,4.54,3.18-.26,5.88-1.85,8.68-3.12,3.26-1.59,5.94-4.28,7.77-7.4-4.55,1.62-14.45,1.43-14.73,1.14-.37-.37.49-1.94,1.14-1.81,4.27.33,8.43-.66,12.62-1.18.91-.11,1.78-.69,2.63-1.11.89-.44-1.72-3.98-2.55-5.21ZM164.64,148.3c-1.66-.01-3.01-1.32-3.03-2.94.16-3.94,5.65-4.85,6.03-.37.01,1.67-1.49,3.32-3,3.31Z"/>
    <path class="cls-1" d="M164.14,130.02c-3.59-.68-6.87.01-10.04,1.38-19.66-52.65-92.44-51.7-112.05-.3-2.2-2.77-4.36-5.49-6.49-8.23-.13-.17-.09-.56,0-.8.63-2.19,1.61-4.19,2.98-6.01,13.26-22.3,37.86-35.37,63.78-33.73,18.37.78,36.05,9.79,47.98,23.72,5.67,6.82,10.26,14.34,13.58,22.59.13.49.34.8.25,1.38Z"/>
    <path class="cls-1" d="M42.51,149.61c-4.76-5.09-9.04-10.69-13.45-16.11-5.65-7.13-7.97-15.98-9.66-24.77l.33-.13c1.42,2.35,2.9,4.66,4.39,6.96,0,0,3.43,4.4,3.45,4.43,6.09,7.19,12.31,14.29,18.48,21.41,1.39,1.59.13,3.25.09,3.29-1.22,1.57-2.38,3.19-3.64,4.9Z"/>
    <path class="cls-1" d="M94.8,173.18v-42.72h5.34c.24,13.81-.1,27.6.28,41.41.03,1.03-.3,1.39-1.35,1.33-1.36-.09-2.74-.02-4.27-.02Z"/>
    <path class="cls-1" d="M105.8,172.45v-41.07c1.67.57,3.19,1.03,4.66,1.64.34.14.69.74.69,1.14.07,5.92.08,11.85.11,17.77.03,5.84.04,11.69.11,17.53,0,.74-.12,1.08-.91,1.31-1.59.47-3.14,1.12-4.67,1.68Z"/>
    <path class="cls-1" d="M89.8,172.4c-1.65-.48-3.23-.9-4.77-1.44-.25-.09-.47-.65-.47-1-.04-1.84,0-3.69,0-5.54.01-10.13.03-20.26.01-30.39,0-.92.2-1.28,1.18-1.41,1.33-.17,2.63-.62,4.06-.98v40.76Z"/>
    <path class="cls-1" d="M79.8,168.3l-.37.21c-1.02-.68-1.98-1.51-3.08-1.99-1.77-.77-2.16-1.96-2.13-3.83.03-8.15.21-16.32-.15-24.47l5.74-3.37v33.45Z"/>
    <path class="cls-1" d="M115.8,168.22v-32.84c1.82,1.22,3.51,2.31,5.14,3.48.25.18.29.76.29,1.15.02,7.26-.11,14.52.09,21.77.06,2.02-.07,3.41-2.16,4.11-1.28.61-2.05,1.47-3.36,2.33Z"/>
    <path class="cls-1" d="M69.8,141.41v20.25c-1.61-1.15-2.47-2.64-4.03-3.69-1.74-1.1-2.11-2.5-1.86-4.56.22-1.89.2-3.8.01-5.69-.09-.94.02-1.36.71-1.86,1.9-1.42,3.4-2.75,5.17-4.45Z"/>
  </g>
  <text class="cls-2" transform="translate(0 222.95)"><tspan x="0" y="0">ANTI</tspan><tspan class="cls-3" x="67.1" y="0">-</tspan><tspan x="75.69" y="0">THEISTE</tspan></text>
  <path class="cls-1" d="M137.03,154.64c1.87,1.92,3.69,3.79,5.66,5.8-3.44,3.49-6.82,7.27-10.56,10.63-13.91,12.4-34.33,17.06-51.85,10.04-9.03-3.38-16.64-8.8-23.29-15.7-1.93-2-4.06-3.78-6-5.58,1.97-2.32,3.62-4.27,5.37-6.34,15.21,16.8,35.21,29.45,57.95,19.02,9.13-3.82,15.67-11.29,22.73-17.88Z"/>
  <path class="cls-1" d="M28.23,164.21c-1.56-8.29-1.09-16.59-.03-24.99,2.27,2.32,9.83,12.65,9.62,12.92-3.16,4.04-6.37,8.03-9.59,12.07Z"/>
  <path class="cls-1" d="M126.8,160.55v-17.45c1.87,1.85,3.62,3.57,5.46,5.39,0,1.85-.03,4.02.02,6.2.01.68-.14,1.13-.69,1.59-1.58,1.32-3.08,2.74-4.78,4.27Z"/>
</svg>